<svg class="myparishapp__icon-svg myparishapp__icon-apple" xmlns="http://www.w3.org/2000/svg" viewBox="0 0 430 430"><path d="M144.74 284.95c0 7 4.69 11.72 11.72 11.72h11.72v41a17.55 17.55 0 0 0 35.1 0v-41h23.44v41a17.55 17.55 0 0 0 35.1 0v-41h11.72c7 0 11.72-4.69 11.72-11.72V167.87H144.74zm140.42-132.47a68.79 68.79 0 0 0-16-40.69A63.34 63.34 0 0 0 256 99.94l15.2-15.21a5.78 5.78 0 0 0-8.2-8.17l-15.7 15.67-.73.73a69.39 69.39 0 0 0-31.41-7h-.34a69.4 69.4 0 0 0-31.41 7l-.73-.73L167 76.56a5.78 5.78 0 1 0-8.17 8.17L174 99.94a63.43 63.43 0 0 0-13.2 11.86 68.78 68.78 0 0 0-16 40.69v.48c-.05 1.06-.07 2.11-.07 3.18h140.53c0-1.06 0-2.12-.07-3.18l-.03-.49zm-99.45-16.81a8.78 8.78 0 1 1 8.78-8.78 8.78 8.78 0 0 1-8.78 8.79zm58.59 0a8.78 8.78 0 1 1 8.78-8.78 8.78 8.78 0 0 1-8.79 8.79zm70.24 32.2A18 18 0 0 0 297 185.41v82a17.55 17.55 0 1 0 35.1 0v-82a18 18 0 0 0-17.56-17.54zm-199.08 0a18 18 0 0 0-17.55 17.54v82a17.55 17.55 0 1 0 35.1 0v-82a18 18 0 0 0-17.55-17.54z" fill="none"/><circle cx="185.71" cy="126.89" r="8.78"/><circle cx="244.29" cy="126.89" r="8.78"/><path d="M215 0C96.26 0 0 96.26 0 215s96.26 215 215 215 215-96.26 215-215S333.74 0 215 0zm-82 267.39a17.55 17.55 0 1 1-35.1 0v-82a17.55 17.55 0 0 1 35.1 0zm152.25 17.55c0 7-4.69 11.72-11.72 11.72h-11.71v41a17.55 17.55 0 0 1-35.1 0v-41h-23.44v41a17.55 17.55 0 0 1-35.1 0v-41h-11.72c-7 0-11.72-4.69-11.72-11.72V167.87h140.52zm-140.51-128.8c0-1.06 0-2.12.07-3.18v-.48a68.78 68.78 0 0 1 16-40.69A63.43 63.43 0 0 1 174 99.94l-15.2-15.21a5.78 5.78 0 1 1 8.2-8.17l15.72 15.67.73.73a69.4 69.4 0 0 1 31.41-7h.34a69.39 69.39 0 0 1 31.41 7l.73-.73L263 76.56a5.78 5.78 0 0 1 8.17 8.17L256 99.94a63.34 63.34 0 0 1 13.21 11.85 68.79 68.79 0 0 1 16 40.69v.48c.05 1.06.07 2.11.07 3.18zm187.34 111.25a17.55 17.55 0 1 1-35.1 0v-82a17.55 17.55 0 0 1 35.1 0z"/></svg>