<svg xmlns="http://www.w3.org/2000/svg" viewBox="0 0 25 25" fill="#000"><path d="M4.5 25c-1.5-.4-.2-1.6.6-1.8 1.2-.5.6-2-.3-2.5C1.2 18.4-.9 13.8.4 9.8c1.2-5.2 6-9 11.3-9.7 4.7-.8 9.7 1.7 11.8 5.9 2.2 4.2 1.9 9.6-1.2 13.4-2 2.3-5.3 3.7-8.4 3-2.4-.6-3.7-3-4-5.2-.3-1.4-.3-2.8-.3-4.2-1.4-.3-4.4.3-4.1-1.8.3-1.1 1.3-2.3 2.7-1.8 1.4.6 2 .1 1.8-1.3-.1-1.3.6-3 2.1-3.2 1.8.7 0 3.3.3 4.8 1.9 0 3.9-.5 5.6-1.3 1.8.1.6 3-.7 3.3-1.5.8-3.4 1-5 1.3.1 2.2.6 4.8 2.7 6 2.7.8 5.9-.5 6.8-3.2 1.3-3.7 0-8-3.2-10.4-4-3.3-10.7-2.7-14.1 1.1-2.4 2.6-2.2 6.9.3 9.4 1.5 1.6 3.9 2.6 4.4 4.9.4 1.4-.1 3-1.5 3.6-1 .4-2.1.7-3.2.5z"/></svg>